<svg id="capeverse-wave" width="100%" height="240" viewBox="0 0 1920 240" fill="none" xmlns="http://www.w3.org/2000/svg"><path d="M -635 385 L -630.242 133.165 C -452.9 53.8508 -275.875 14.3252 -99.0658 14.3252 C 35.2853 14.3252 101.855 44.8033 169.692 75.862 L 169.913 75.9631 C 239.402 107.778 310.238 140.142 450.547 140.142 C 590.857 140.142 661.692 107.778 731.182 75.9631 L 731.403 75.862 C 799.24 44.8033 865.809 14.3252 1000.16 14.3252 C 1134.51 14.3252 1201.08 44.8033 1268.92 75.862 L 1269.14 75.9631 C 1338.63 107.778 1409.46 140.142 1549.77 140.142 C 1690.08 140.142 1760.92 107.778 1830.41 75.9631 L 1830.63 75.862 C 1898.47 44.8033 1965.04 14.3252 2099.39 14.3252 C 2277.67 14.3252 2456.17 54.5128 2635 135.158 V 393 L -635 388 Z" fill="#495FA8" stroke="#EADC63" stroke-width="28"></path></svg>